<svg width="60" height="60" viewBox="0 0 60 60" fill="none" xmlns="http://www.w3.org/2000/svg">
<g clip-path="url(#clip0_2_393)">
<path d="M30 0C46.5857 0 60 13.4143 60 30C60 46.5857 46.5857 60 30 60C13.4143 60 0 46.5857 0 30C0 13.4143 13.4143 0 30 0ZM24.5143 45.8143C37.8 45.8143 45.0857 34.8 45.0857 25.2429V24.3C46.5 23.2714 47.7429 21.9857 48.6857 20.5286C47.4 21.0857 45.9857 21.4714 44.5286 21.6857C46.0286 20.7857 47.1857 19.3714 47.7 17.7C46.2857 18.5143 44.7429 19.1143 43.1143 19.4571C41.7857 18.0429 39.9 17.1857 37.8429 17.1857C33.8571 17.1857 30.6 20.4429 30.6 24.4286C30.6 24.9857 30.6429 25.5429 30.8143 26.0571C24.8143 25.7571 19.4571 22.8857 15.9 18.5143C15.3 19.5857 14.9143 20.8286 14.9143 22.1571C14.9143 24.6429 16.2 26.8714 18.1286 28.1571C16.9286 28.1571 15.8143 27.8143 14.8714 27.2571V27.3429C14.8714 30.8571 17.3571 33.7714 20.6571 34.4571C20.0571 34.6286 19.4143 34.7143 18.7714 34.7143C18.3 34.7143 17.8714 34.6714 17.4 34.5857C18.3 37.4571 21 39.5571 24.1286 39.6C21.6429 41.5286 18.5143 42.6857 15.1286 42.6857C14.5286 42.6857 13.9714 42.6857 13.4143 42.6C16.5857 44.6571 20.4 45.8571 24.4714 45.8571" fill="black"/>
</g>
<defs>
<clipPath id="clip0_2_393">
<rect width="60" height="60" fill="white"/>
</clipPath>
</defs>
</svg>
