<svg width="18" height="18" viewBox="0 0 32 32" fill="none" xmlns="http://www.w3.org/2000/svg">
<path d="M5.6 8C4.96348 8 4.35303 7.74714 3.90294 7.29706C3.45286 6.84697 3.2 6.23652 3.2 5.6C3.2 4.96348 3.45286 4.35303 3.90294 3.90294C4.35303 3.45286 4.96348 3.2 5.6 3.2C6.23652 3.2 6.84697 3.45286 7.29706 3.90294C7.74714 4.35303 8 4.96348 8 5.6C8 6.23652 7.74714 6.84697 7.29706 7.29706C6.84697 7.74714 6.23652 8 5.6 8ZM31.056 15.328L16.656 0.928C16.08 0.352 15.28 0 14.4 0H3.2C1.424 0 0 1.424 0 3.2V14.4C0 15.28 0.352 16.08 0.944 16.656L15.328 31.056C15.92 31.632 16.72 32 17.6 32C18.48 32 19.28 31.632 19.856 31.056L31.056 19.856C31.648 19.28 32 18.48 32 17.6C32 16.704 31.632 15.904 31.056 15.328Z" fill="#333333"/>
</svg>
