<svg width="512" height="512" viewBox="0 0 512 512" fill="none" xmlns="http://www.w3.org/2000/svg">
<path d="M335.45 256C335.438 218.064 345.471 180.801 364.53 148L372.15 134.74C356.177 130.939 339.901 128.546 323.51 127.59C301.57 110.69 268.87 90.64 231.17 84.26L208 80L221.37 141.86C179.7 156 142.94 184.72 118.61 204.48C113.903 200.54 108.977 196.69 103.83 192.93C64.12 163.93 21.23 161.13 19.43 161.03L0 160L2.67 179.31C2.96 181.31 9.46 224.04 34.32 255.83C9.46 287.63 3 330.33 2.67 332.36L0 352L19.43 350.64C21.23 350.54 64.12 347.75 103.83 318.74C108.883 315.053 113.737 311.263 118.39 307.37C142.76 327.2 179.53 355.97 221.25 370.11L208 432L231.17 427.78C268.66 421.44 301.25 401.38 323.17 384.46C339.79 383.499 356.293 381.08 372.49 377.23L364.58 364.05C345.499 331.238 335.448 293.957 335.45 256Z" fill="#579BB1"/>
<path d="M499.59 221.75C493.74 211.87 483.05 196.85 465.4 181.47C447.026 165.647 426.049 153.128 403.4 144.47L392.23 164C376.014 191.922 367.466 223.634 367.45 255.923C367.434 288.212 375.952 319.932 392.14 347.87L403.89 367.44C426.304 358.887 447.08 346.544 465.31 330.95C497.05 303.47 512 269 512 256C512 243.69 504 229.26 499.59 221.75ZM416 256C412.835 256 409.742 255.062 407.111 253.303C404.48 251.545 402.429 249.047 401.218 246.123C400.007 243.199 399.69 239.982 400.307 236.879C400.925 233.775 402.449 230.924 404.686 228.686C406.924 226.449 409.775 224.925 412.878 224.307C415.982 223.69 419.199 224.007 422.123 225.218C425.046 226.429 427.545 228.48 429.303 231.111C431.062 233.742 432 236.835 432 240C432 244.243 430.314 248.313 427.314 251.314C424.313 254.314 420.243 256 416 256Z" fill="#579BB1"/>
</svg>
